<svg width="108" height="108" viewBox="0 0 108 108" fill="none" xmlns="http://www.w3.org/2000/svg">
<g filter="url(#filter0_d)">
<g clip-path="url(#clip0)">
<path d="M34.7322 4.39231L34.7322 4.39228C40.8347 1.81068 47.3172 0.501007 53.9999 0.501007C60.6839 0.501007 67.1669 1.81087 73.2689 4.39227C79.1605 6.88471 84.456 10.4539 89.0038 14.9985C93.5484 19.5445 97.1158 24.8388 99.6085 30.7332C102.189 36.8358 103.5 43.3185 103.5 50.0009C103.5 56.6847 102.189 63.1676 99.6087 69.2701C97.116 75.1615 93.5485 80.4572 89.004 85.0017C84.4564 89.5492 79.1609 93.1166 73.2692 95.6093C67.167 98.1894 60.6841 99.5006 54.0001 99.5006C47.3175 99.5006 40.8349 98.1894 34.7323 95.6093C28.8378 93.1169 23.5435 89.5494 18.9976 85.0018L18.9975 85.0017C14.4531 80.4571 10.8837 75.1616 8.39127 69.27C5.80967 63.1677 4.5 56.6847 4.5 50.0009C4.5 43.3185 5.80986 36.8357 8.39108 30.7332L8.3911 30.7332C10.8837 24.8389 14.4528 19.5446 18.9973 14.9986C23.5435 10.4541 28.8379 6.88475 34.7322 4.39231Z" fill="#ED5564" stroke="black"/>
<path d="M4.01993 51.4038C4.19083 57.6568 5.50298 63.7269 7.93079 69.4639C10.4484 75.4151 14.0542 80.7645 18.644 85.3545C23.2353 89.9476 28.5835 93.5514 34.5376 96.069C40.7023 98.6754 47.2511 99.9998 54.0001 99.9998C60.7505 99.9998 67.2997 98.6754 73.464 96.069C79.4151 93.5512 84.7645 89.9474 89.3576 85.3545C93.9476 80.7645 97.5514 75.4149 100.069 69.4639C102.499 63.7269 103.811 57.6568 103.982 51.4038H4.01993Z" fill="#E6E9ED"/>
<path d="M103.762 54.9257C103.92 53.2959 104 51.6541 104 50.0001C104 48.1415 103.899 46.2983 103.701 44.4748C101.217 44.8578 97.649 45.3568 93.154 45.8525C84.6209 46.794 70.9065 47.9171 53.9999 47.9171C37.0947 47.9171 23.3787 46.794 14.8474 45.8525C10.3508 45.3566 6.78465 44.8578 4.30059 44.4748C4.10078 46.2983 4 48.1417 4 50.0001C4 51.6541 4.0793 53.2961 4.23809 54.9257C12.3497 56.1464 30.2207 58.3312 53.9999 58.3312C77.7791 58.3312 95.65 56.1464 103.762 54.9257Z" fill="#434A54"/>
<path d="M64.4186 52.0828C64.4186 57.8367 59.7522 62.4999 53.9999 62.4999C48.2474 62.4999 43.5828 57.8367 43.5828 52.0828C43.5828 46.3301 48.2474 41.6671 53.9999 41.6671C59.7522 41.6672 64.4186 46.3303 64.4186 52.0828Z" fill="#E6E9ED"/>
<path d="M53.9999 33.333C43.6605 33.333 35.2499 41.7452 35.2499 52.083C35.2499 62.4208 43.6607 70.8312 53.9999 70.8312C64.3391 70.8312 72.7497 62.4206 72.7497 52.083C72.7497 41.7452 64.3393 33.333 53.9999 33.333ZM53.9999 60.4188C49.4056 60.4188 45.667 56.6772 45.667 52.083C45.667 47.4885 49.4054 43.7501 53.9999 43.7501C58.5959 43.7501 62.331 47.4885 62.331 52.083C62.331 56.677 58.5959 60.4188 53.9999 60.4188Z" fill="#434A54"/>
<path opacity="0.1" d="M7.93078 69.4648C10.4484 75.4159 14.0542 80.7653 18.644 85.3553C23.2353 89.9484 28.5835 93.5522 34.5376 96.0698C40.7022 98.6762 47.2511 100.001 54.0001 100.001C54.6974 100.001 55.3917 99.9854 56.083 99.9578C50.0693 99.7137 44.233 98.4074 38.7032 96.0698C32.7493 93.552 27.4026 89.9482 22.8113 85.3553C18.2199 80.7653 14.6157 75.4157 12.0965 69.4648C9.48864 63.3005 8.16731 56.7513 8.16731 50.0009C8.16731 43.2519 9.48864 36.7029 12.0963 30.5382C14.6155 24.5843 18.2198 19.2359 22.8111 14.6464C27.4024 10.055 32.7491 6.44924 38.703 3.93159C44.2328 1.59246 50.0691 0.287734 56.0828 0.0435865C55.3915 0.0162419 54.6972 0.00100708 53.9999 0.00100708C47.2509 0.00100708 40.7021 1.3239 34.5374 3.93179C28.5835 6.44944 23.2353 10.0552 18.6438 14.6466C14.054 19.2363 10.4484 24.5845 7.93058 30.5384C5.32309 36.7031 4 43.2521 4 50.0009C4 56.7511 5.32309 63.3005 7.93078 69.4648Z" fill="white"/>
</g>
</g>
<defs>
<filter id="filter0_d" x="0" y="0" width="108" height="108" filterUnits="userSpaceOnUse" color-interpolation-filters="sRGB">
<feFlood flood-opacity="0" result="BackgroundImageFix"/>
<feColorMatrix in="SourceAlpha" type="matrix" values="0 0 0 0 0 0 0 0 0 0 0 0 0 0 0 0 0 0 127 0"/>
<feOffset dy="4"/>
<feGaussianBlur stdDeviation="2"/>
<feColorMatrix type="matrix" values="0 0 0 0 0 0 0 0 0 0 0 0 0 0 0 0 0 0 0.25 0"/>
<feBlend mode="normal" in2="BackgroundImageFix" result="effect1_dropShadow"/>
<feBlend mode="normal" in="SourceGraphic" in2="effect1_dropShadow" result="shape"/>
</filter>
<clipPath id="clip0">
<rect x="4" width="100" height="100" fill="white"/>
</clipPath>
</defs>
</svg>
